<svg xmlns="http://www.w3.org/2000/svg" viewBox="0 0 640 480" role="img" aria-label="Australia flag">
  <path fill="#012169" d="M0 0h640v480H0z"/>
  <path fill="#fff" d="m0 0 320 240h-72L0 54zm320 0L0 240v-54L248 0z"/>
  <path fill="#c8102e" d="m0 0 320 240h-42L0 32zm320 0L0 240v-32L278 0z"/>
  <path fill="#fff" d="M128 0v240h64V0zM0 88v64h320V88z"/>
  <path fill="#c8102e" d="M141 0v240h38V0zM0 101v38h320v-38z"/>
  <g fill="#fff">
    <path d="m480 92 12 36 38-1-31 22 13 36-32-22-31 22 12-36-31-22 38 1z"/>
    <path d="m430 258 8 24 25-1-20 15 8 24-21-15-20 15 8-24-20-15 25 1z"/>
    <path d="m535 250 8 24 25-1-20 15 8 24-21-15-20 15 8-24-20-15 25 1z"/>
    <path d="m494 348 8 24 25-1-20 15 8 24-21-15-20 15 8-24-20-15 25 1z"/>
    <path d="m570 160 7 20h21l-17 12 7 20-18-13-17 13 7-20-17-12h21z"/>
  </g>
</svg>
