<svg xmlns="http://www.w3.org/2000/svg" width="2600" height="1800" viewBox="0 0 2600 1800" role="img" aria-labelledby="title desc">
  <title id="title">Pred-Market V1 End-to-End Architecture</title>
  <desc id="desc">A complex system architecture for a V1 prediction market platform with market creation, approval, trading, order matching, collateral, settlement, wallets, risk, admin, and observability.</desc>
  <defs>
    <marker id="arrow" viewBox="0 0 10 10" refX="9" refY="5" markerWidth="8" markerHeight="8" orient="auto-start-reverse">
      <path d="M 0 0 L 10 5 L 0 10 z" fill="#263238"/>
    </marker>
    <marker id="arrowBlue" viewBox="0 0 10 10" refX="9" refY="5" markerWidth="8" markerHeight="8" orient="auto-start-reverse">
      <path d="M 0 0 L 10 5 L 0 10 z" fill="#0d47a1"/>
    </marker>
    <marker id="arrowRed" viewBox="0 0 10 10" refX="9" refY="5" markerWidth="8" markerHeight="8" orient="auto-start-reverse">
      <path d="M 0 0 L 10 5 L 0 10 z" fill="#b71c1c"/>
    </marker>
    <filter id="shadow" x="-10%" y="-10%" width="130%" height="130%">
      <feDropShadow dx="0" dy="5" stdDeviation="5" flood-color="#000" flood-opacity="0.13"/>
    </filter>
    <style>
      .bg { fill: #f6f8fb; }
      .title { font: 700 36px Arial, sans-serif; fill: #102027; }
      .subtitle { font: 400 17px Arial, sans-serif; fill: #455a64; }
      .plane-title { font: 700 18px Arial, sans-serif; fill: #102027; }
      .plane-note { font: 400 12px Arial, sans-serif; fill: #546e7a; }
      .node-title { font: 700 13px Arial, sans-serif; fill: #102027; }
      .node-text { font: 400 11px Arial, sans-serif; fill: #37474f; }
      .small { font: 400 10px Arial, sans-serif; fill: #455a64; }
      .lane { stroke-width: 1.4; rx: 18; filter: url(#shadow); }
      .node { fill: #fff; stroke: #90a4ae; stroke-width: 1.2; rx: 9; filter: url(#shadow); }
      .node-blue { fill: #e3f2fd; stroke: #42a5f5; }
      .node-green { fill: #e8f5e9; stroke: #66bb6a; }
      .node-amber { fill: #fff8e1; stroke: #ffb300; }
      .node-red { fill: #ffebee; stroke: #ef5350; }
      .node-purple { fill: #f3e5f5; stroke: #ab47bc; }
      .node-gray { fill: #eceff1; stroke: #78909c; }
      .node-teal { fill: #e0f2f1; stroke: #26a69a; }
      .node-pink { fill: #fce4ec; stroke: #ec407a; }
      .edge { fill: none; stroke: #263238; stroke-width: 1.65; marker-end: url(#arrow); }
      .edge-blue { fill: none; stroke: #0d47a1; stroke-width: 2; marker-end: url(#arrowBlue); }
      .edge-red { fill: none; stroke: #b71c1c; stroke-width: 2; marker-end: url(#arrowRed); }
      .edge-dash { fill: none; stroke: #607d8b; stroke-width: 1.55; stroke-dasharray: 8 6; marker-end: url(#arrow); }
      .edge-feedback { fill: none; stroke: #6a1b9a; stroke-width: 2; stroke-dasharray: 10 6; marker-end: url(#arrow); }
      .bus { fill: #263238; stroke: none; rx: 8; }
      .bus-text { font: 700 13px Arial, sans-serif; fill: #fff; }
      .section-label { font: 700 12px Arial, sans-serif; fill: #fff; }
      .badge { fill: #263238; rx: 7; }
    </style>
  </defs>

  <rect class="bg" width="2600" height="1800"/>
  <text x="70" y="65" class="title">Pred-Market V1 - Full Platform Architecture</text>
  <text x="70" y="96" class="subtitle">Kalshi/Polymarket-style binary prediction market: market approval, YES/NO order books, matching, collateral, settlement, wallets, risk controls, admin, and analytics</text>

  <!-- Background planes -->
  <rect x="50" y="130" width="360" height="1505" class="lane" fill="#e8eef5" stroke="#9fb3c8"/>
  <text x="75" y="164" class="plane-title">1. Clients + Access</text>
  <text x="75" y="186" class="plane-note">User-facing and internal interfaces</text>

  <rect x="440" y="130" width="360" height="1505" class="lane" fill="#e7f4f7" stroke="#80b7c4"/>
  <text x="465" y="164" class="plane-title">2. API + Identity Edge</text>
  <text x="465" y="186" class="plane-note">Auth, routing, validation, rate limits</text>

  <rect x="830" y="130" width="430" height="1505" class="lane" fill="#edf7ed" stroke="#8cc58f"/>
  <text x="855" y="164" class="plane-title">3. Market Lifecycle</text>
  <text x="855" y="186" class="plane-note">Suggestion, review, listing, rules</text>

  <rect x="1290" y="130" width="440" height="1505" class="lane" fill="#fff6df" stroke="#dfb64d"/>
  <text x="1315" y="164" class="plane-title">4. Trading Core</text>
  <text x="1315" y="186" class="plane-note">Order books, matching, positions, collateral</text>

  <rect x="1760" y="130" width="360" height="1505" class="lane" fill="#f7eaf9" stroke="#bd8ccb"/>
  <text x="1785" y="164" class="plane-title">5. Money + Settlement</text>
  <text x="1785" y="186" class="plane-note">Wallets, escrow, resolution, payouts</text>

  <rect x="2150" y="130" width="400" height="1505" class="lane" fill="#f9ecec" stroke="#cf9a9a"/>
  <text x="2175" y="164" class="plane-title">6. Risk, Ops + Intelligence</text>
  <text x="2175" y="186" class="plane-note">Monitoring, liquidity, fraud, analytics</text>

  <!-- Clients -->
  <rect x="85" y="230" width="135" height="72" class="node node-gray"/>
  <text x="105" y="255" class="node-title">Web App</text>
  <text x="105" y="275" class="node-text">market browse</text>
  <text x="105" y="291" class="node-text">trade ticket</text>

  <rect x="245" y="230" width="135" height="72" class="node node-gray"/>
  <text x="265" y="255" class="node-title">Mobile App</text>
  <text x="265" y="275" class="node-text">watchlist</text>
  <text x="265" y="291" class="node-text">orders, wallet</text>

  <rect x="85" y="340" width="135" height="72" class="node node-gray"/>
  <text x="105" y="365" class="node-title">Admin Console</text>
  <text x="105" y="385" class="node-text">market review</text>
  <text x="105" y="401" class="node-text">resolution ops</text>

  <rect x="245" y="340" width="135" height="72" class="node node-gray"/>
  <text x="265" y="365" class="node-title">Market Maker</text>
  <text x="265" y="385" class="node-text">quote tools</text>
  <text x="265" y="401" class="node-text">liquidity bots</text>

  <rect x="85" y="450" width="135" height="72" class="node node-gray"/>
  <text x="105" y="475" class="node-title">Public API</text>
  <text x="105" y="495" class="node-text">markets, books</text>
  <text x="105" y="511" class="node-text">orders</text>

  <rect x="245" y="450" width="135" height="72" class="node node-gray"/>
  <text x="265" y="475" class="node-title">Notifications</text>
  <text x="265" y="495" class="node-text">email, push</text>
  <text x="265" y="511" class="node-text">websocket</text>

  <rect x="85" y="595" width="295" height="180" class="node node-blue"/>
  <text x="110" y="623" class="node-title">Key User Workflows</text>
  <text x="110" y="647" class="node-text">1. Discover market and view implied probability</text>
  <text x="110" y="665" class="node-text">2. Deposit funds into wallet</text>
  <text x="110" y="683" class="node-text">3. Place limit/market order on YES or NO</text>
  <text x="110" y="701" class="node-text">4. Track fills, open orders, positions, P&amp;L</text>
  <text x="110" y="719" class="node-text">5. Sell before close or wait for settlement</text>
  <text x="110" y="737" class="node-text">6. Withdraw resolved balance</text>

  <rect x="85" y="830" width="295" height="160" class="node node-amber"/>
  <text x="110" y="858" class="node-title">Core Product Assumption</text>
  <text x="110" y="882" class="node-text">Payout unit: platform-defined, e.g. ₹100</text>
  <text x="110" y="900" class="node-text">YES price + NO price approximately equals payout</text>
  <text x="110" y="918" class="node-text">Winning side receives payout</text>
  <text x="110" y="936" class="node-text">Losing side receives ₹0</text>
  <text x="110" y="954" class="node-text">Platform matches users, not bookmaker risk</text>

  <!-- API edge -->
  <rect x="475" y="230" width="290" height="70" class="node node-teal"/>
  <text x="500" y="256" class="node-title">API Gateway / BFF</text>
  <text x="500" y="276" class="node-text">REST/GraphQL, WebSocket routing, idempotency keys</text>

  <rect x="475" y="335" width="132" height="72" class="node node-teal"/>
  <text x="495" y="360" class="node-title">Auth Service</text>
  <text x="495" y="380" class="node-text">sessions</text>
  <text x="495" y="396" class="node-text">JWT/device trust</text>

  <rect x="633" y="335" width="132" height="72" class="node node-teal"/>
  <text x="653" y="360" class="node-title">KYC / Profile</text>
  <text x="653" y="380" class="node-text">limits</text>
  <text x="653" y="396" class="node-text">jurisdiction</text>

  <rect x="475" y="445" width="132" height="72" class="node node-teal"/>
  <text x="495" y="470" class="node-title">Rate Limits</text>
  <text x="495" y="490" class="node-text">per user</text>
  <text x="495" y="506" class="node-text">per market</text>

  <rect x="633" y="445" width="132" height="72" class="node node-teal"/>
  <text x="653" y="470" class="node-title">Request Guard</text>
  <text x="653" y="490" class="node-text">schema validation</text>
  <text x="653" y="506" class="node-text">anti-replay</text>

  <rect x="475" y="555" width="290" height="56" class="bus"/>
  <text x="520" y="589" class="bus-text">Command + Event Bus</text>

  <rect x="475" y="660" width="132" height="72" class="node node-teal"/>
  <text x="495" y="685" class="node-title">Realtime Hub</text>
  <text x="495" y="705" class="node-text">order book</text>
  <text x="495" y="721" class="node-text">fills, prices</text>

  <rect x="633" y="660" width="132" height="72" class="node node-teal"/>
  <text x="653" y="685" class="node-title">Audit Ingress</text>
  <text x="653" y="705" class="node-text">append-only</text>
  <text x="653" y="721" class="node-text">user actions</text>

  <!-- Market lifecycle -->
  <rect x="875" y="230" width="160" height="72" class="node node-green"/>
  <text x="895" y="255" class="node-title">Suggestion</text>
  <text x="895" y="275" class="node-text">user proposes</text>
  <text x="895" y="291" class="node-text">market idea</text>

  <rect x="1060" y="230" width="160" height="72" class="node node-green"/>
  <text x="1080" y="255" class="node-title">AI Drafting</text>
  <text x="1080" y="275" class="node-text">wording, date</text>
  <text x="1080" y="291" class="node-text">edge cases</text>

  <rect x="875" y="340" width="160" height="72" class="node node-green"/>
  <text x="895" y="365" class="node-title">Policy Checks</text>
  <text x="895" y="385" class="node-text">allowed topics</text>
  <text x="895" y="401" class="node-text">duplication</text>

  <rect x="1060" y="340" width="160" height="72" class="node node-green"/>
  <text x="1080" y="365" class="node-title">Human Review</text>
  <text x="1080" y="385" class="node-text">approve/reject</text>
  <text x="1080" y="401" class="node-text">compliance note</text>

  <rect x="875" y="450" width="160" height="72" class="node node-green"/>
  <text x="895" y="475" class="node-title">Market Rules</text>
  <text x="895" y="495" class="node-text">YES/NO criteria</text>
  <text x="895" y="511" class="node-text">close time</text>

  <rect x="1060" y="450" width="160" height="72" class="node node-green"/>
  <text x="1080" y="475" class="node-title">Oracle Source</text>
  <text x="1080" y="495" class="node-text">trusted data</text>
  <text x="1080" y="511" class="node-text">resolution source</text>

  <rect x="875" y="560" width="345" height="76" class="node node-green"/>
  <text x="900" y="586" class="node-title">Contract Definition Service</text>
  <text x="900" y="606" class="node-text">payout unit, tick size, min order, market close, settlement rule</text>
  <text x="900" y="624" class="node-text">creates YES/NO instruments and metadata</text>

  <rect x="875" y="680" width="160" height="72" class="node node-green"/>
  <text x="895" y="705" class="node-title">Market Listing</text>
  <text x="895" y="725" class="node-text">visible to users</text>
  <text x="895" y="741" class="node-text">open trading</text>

  <rect x="1060" y="680" width="160" height="72" class="node node-green"/>
  <text x="1080" y="705" class="node-title">Market State</text>
  <text x="1080" y="725" class="node-text">draft/open</text>
  <text x="1080" y="741" class="node-text">closed/resolved</text>

  <rect x="875" y="820" width="345" height="170" class="node node-blue"/>
  <text x="900" y="848" class="node-title">Market Lifecycle State Machine</text>
  <text x="900" y="872" class="node-text">Draft -> Review -> Approved -> Listed/Open</text>
  <text x="900" y="890" class="node-text">Open -> Paused by Risk -> Reopened</text>
  <text x="900" y="908" class="node-text">Open -> Trading Closed -> Pending Resolution</text>
  <text x="900" y="926" class="node-text">Pending Resolution -> Resolved YES/NO/Void</text>
  <text x="900" y="944" class="node-text">Resolved -> Payout Complete -> Archived</text>
  <text x="900" y="962" class="node-text">Any state -> Admin Halt / Compliance Lock</text>

  <!-- Trading core -->
  <rect x="1335" y="230" width="155" height="72" class="node node-amber"/>
  <text x="1355" y="255" class="node-title">Order API</text>
  <text x="1355" y="275" class="node-text">limit/market</text>
  <text x="1355" y="291" class="node-text">cancel/replace</text>

  <rect x="1515" y="230" width="155" height="72" class="node node-amber"/>
  <text x="1535" y="255" class="node-title">Pre-Trade Check</text>
  <text x="1535" y="275" class="node-text">balance, limits</text>
  <text x="1535" y="291" class="node-text">market status</text>

  <rect x="1335" y="340" width="155" height="72" class="node node-amber"/>
  <text x="1355" y="365" class="node-title">Order Book</text>
  <text x="1355" y="385" class="node-text">YES bids/asks</text>
  <text x="1355" y="401" class="node-text">NO implied side</text>

  <rect x="1515" y="340" width="155" height="72" class="node node-amber"/>
  <text x="1535" y="365" class="node-title">Matching Engine</text>
  <text x="1535" y="385" class="node-text">price-time priority</text>
  <text x="1535" y="401" class="node-text">partial fills</text>

  <rect x="1335" y="450" width="155" height="72" class="node node-amber"/>
  <text x="1355" y="475" class="node-title">Trade Ledger</text>
  <text x="1355" y="495" class="node-text">fills</text>
  <text x="1355" y="511" class="node-text">immutable events</text>

  <rect x="1515" y="450" width="155" height="72" class="node node-amber"/>
  <text x="1535" y="475" class="node-title">Position Engine</text>
  <text x="1535" y="495" class="node-text">YES/NO holdings</text>
  <text x="1535" y="511" class="node-text">avg entry, P&amp;L</text>

  <rect x="1335" y="560" width="155" height="72" class="node node-amber"/>
  <text x="1355" y="585" class="node-title">Collateral Lock</text>
  <text x="1355" y="605" class="node-text">escrow per</text>
  <text x="1355" y="621" class="node-text">open order/fill</text>

  <rect x="1515" y="560" width="155" height="72" class="node node-amber"/>
  <text x="1535" y="585" class="node-title">Fee Engine</text>
  <text x="1535" y="605" class="node-text">maker/taker</text>
  <text x="1535" y="621" class="node-text">settlement fees</text>

  <rect x="1335" y="680" width="335" height="84" class="node node-amber"/>
  <text x="1360" y="707" class="node-title">Binary Contract Invariant</text>
  <text x="1360" y="727" class="node-text">For payout P, executed YES price + executed NO price = P</text>
  <text x="1360" y="745" class="node-text">Matched fills are fully collateralized before confirmation</text>

  <rect x="1335" y="820" width="335" height="170" class="node node-blue"/>
  <text x="1360" y="848" class="node-title">Example Matching Behavior</text>
  <text x="1360" y="872" class="node-text">A buys 10 YES @ ₹30, payout ₹73</text>
  <text x="1360" y="890" class="node-text">B wants 2 NO @ ₹25 -> no match, waits</text>
  <text x="1360" y="908" class="node-text">C buys 3 NO @ ₹43 -> partial fill</text>
  <text x="1360" y="926" class="node-text">D buys 5 NO @ ₹43 -> partial fill</text>
  <text x="1360" y="944" class="node-text">E buys 2 NO @ ₹43 -> A fully filled</text>
  <text x="1360" y="962" class="node-text">B remains open until YES @ ₹48 arrives</text>

  <rect x="1335" y="1040" width="155" height="72" class="node node-purple"/>
  <text x="1355" y="1065" class="node-title">Liquidity View</text>
  <text x="1355" y="1085" class="node-text">spread, depth</text>
  <text x="1355" y="1101" class="node-text">slippage</text>

  <rect x="1515" y="1040" width="155" height="72" class="node node-purple"/>
  <text x="1535" y="1065" class="node-title">Price Service</text>
  <text x="1535" y="1085" class="node-text">last trade</text>
  <text x="1535" y="1101" class="node-text">implied odds</text>

  <!-- Money and settlement -->
  <rect x="1795" y="230" width="135" height="72" class="node node-purple"/>
  <text x="1815" y="255" class="node-title">Wallet</text>
  <text x="1815" y="275" class="node-text">available</text>
  <text x="1815" y="291" class="node-text">locked balance</text>

  <rect x="1955" y="230" width="135" height="72" class="node node-purple"/>
  <text x="1975" y="255" class="node-title">Payments</text>
  <text x="1975" y="275" class="node-text">deposit</text>
  <text x="1975" y="291" class="node-text">withdraw</text>

  <rect x="1795" y="340" width="135" height="72" class="node node-purple"/>
  <text x="1815" y="365" class="node-title">Escrow</text>
  <text x="1815" y="385" class="node-text">fully backed</text>
  <text x="1815" y="401" class="node-text">contract pool</text>

  <rect x="1955" y="340" width="135" height="72" class="node node-purple"/>
  <text x="1975" y="365" class="node-title">Accounting</text>
  <text x="1975" y="385" class="node-text">double-entry</text>
  <text x="1975" y="401" class="node-text">ledger</text>

  <rect x="1795" y="450" width="135" height="72" class="node node-purple"/>
  <text x="1815" y="475" class="node-title">Oracle Poller</text>
  <text x="1815" y="495" class="node-text">source data</text>
  <text x="1815" y="511" class="node-text">snapshots</text>

  <rect x="1955" y="450" width="135" height="72" class="node node-purple"/>
  <text x="1975" y="475" class="node-title">Resolution</text>
  <text x="1975" y="495" class="node-text">YES/NO/void</text>
  <text x="1975" y="511" class="node-text">admin signoff</text>

  <rect x="1795" y="560" width="135" height="72" class="node node-purple"/>
  <text x="1815" y="585" class="node-title">Payout Engine</text>
  <text x="1815" y="605" class="node-text">winner credits</text>
  <text x="1815" y="621" class="node-text">loser debit final</text>

  <rect x="1955" y="560" width="135" height="72" class="node node-purple"/>
  <text x="1975" y="585" class="node-title">Reconciliation</text>
  <text x="1975" y="605" class="node-text">wallet vs ledger</text>
  <text x="1975" y="621" class="node-text">daily close</text>

  <rect x="1795" y="700" width="295" height="160" class="node node-blue"/>
  <text x="1820" y="728" class="node-title">Settlement Flow</text>
  <text x="1820" y="752" class="node-text">1. Market reaches close time</text>
  <text x="1820" y="770" class="node-text">2. Trading halts, open orders cancel</text>
  <text x="1820" y="788" class="node-text">3. Oracle evidence is captured</text>
  <text x="1820" y="806" class="node-text">4. Admin or automated rule resolves outcome</text>
  <text x="1820" y="824" class="node-text">5. Winners credited, losers finalized</text>
  <text x="1820" y="842" class="node-text">6. Ledger reconciled and market archived</text>

  <rect x="1795" y="920" width="295" height="145" class="node node-red"/>
  <text x="1820" y="948" class="node-title">Money Safety Invariants</text>
  <text x="1820" y="972" class="node-text">- no fill without reserved collateral</text>
  <text x="1820" y="990" class="node-text">- wallet balance cannot go negative</text>
  <text x="1820" y="1008" class="node-text">- every trade has balanced ledger entries</text>
  <text x="1820" y="1026" class="node-text">- payout pool equals winning liability</text>
  <text x="1820" y="1044" class="node-text">- settlement is idempotent and auditable</text>

  <!-- Risk and ops -->
  <rect x="2185" y="230" width="150" height="72" class="node node-red"/>
  <text x="2205" y="255" class="node-title">Fraud Engine</text>
  <text x="2205" y="275" class="node-text">multi-account</text>
  <text x="2205" y="291" class="node-text">abuse signals</text>

  <rect x="2360" y="230" width="150" height="72" class="node node-red"/>
  <text x="2380" y="255" class="node-title">Risk Engine</text>
  <text x="2380" y="275" class="node-text">limits, halts</text>
  <text x="2380" y="291" class="node-text">market surveillance</text>

  <rect x="2185" y="340" width="150" height="72" class="node node-red"/>
  <text x="2205" y="365" class="node-title">Compliance</text>
  <text x="2205" y="385" class="node-text">audit trail</text>
  <text x="2205" y="401" class="node-text">restricted events</text>

  <rect x="2360" y="340" width="150" height="72" class="node node-red"/>
  <text x="2380" y="365" class="node-title">Liquidity Monitor</text>
  <text x="2380" y="385" class="node-text">spread/depth</text>
  <text x="2380" y="401" class="node-text">maker health</text>

  <rect x="2185" y="450" width="150" height="72" class="node node-red"/>
  <text x="2205" y="475" class="node-title">Observability</text>
  <text x="2205" y="495" class="node-text">logs, traces</text>
  <text x="2205" y="511" class="node-text">alerts, SLOs</text>

  <rect x="2360" y="450" width="150" height="72" class="node node-red"/>
  <text x="2380" y="475" class="node-title">Analytics</text>
  <text x="2380" y="495" class="node-text">volume, users</text>
  <text x="2380" y="511" class="node-text">retention, P&amp;L</text>

  <rect x="2185" y="560" width="150" height="72" class="node node-red"/>
  <text x="2205" y="585" class="node-title">Notification Svc</text>
  <text x="2205" y="605" class="node-text">fills, settlement</text>
  <text x="2205" y="621" class="node-text">risk warnings</text>

  <rect x="2360" y="560" width="150" height="72" class="node node-red"/>
  <text x="2380" y="585" class="node-title">Admin Actions</text>
  <text x="2380" y="605" class="node-text">pause market</text>
  <text x="2380" y="621" class="node-text">resolve dispute</text>

  <rect x="2185" y="700" width="325" height="170" class="node node-blue"/>
  <text x="2210" y="728" class="node-title">Good Liquidity Definition</text>
  <text x="2210" y="752" class="node-text">Market is liquid when users can enter/exit quickly</text>
  <text x="2210" y="770" class="node-text">at prices close to fair value, with low slippage.</text>
  <text x="2210" y="794" class="node-text">Signals:</text>
  <text x="2210" y="812" class="node-text">- tight YES bid/ask spread</text>
  <text x="2210" y="830" class="node-text">- meaningful depth near best price</text>
  <text x="2210" y="848" class="node-text">- frequent fills and easy exit</text>

  <rect x="2185" y="930" width="325" height="170" class="node node-amber"/>
  <text x="2210" y="958" class="node-title">V1 Risk Controls</text>
  <text x="2210" y="982" class="node-text">- max order size and daily exposure limits</text>
  <text x="2210" y="1000" class="node-text">- market halt on oracle ambiguity</text>
  <text x="2210" y="1018" class="node-text">- duplicate/abusive market detection</text>
  <text x="2210" y="1036" class="node-text">- suspicious self-trading detection</text>
  <text x="2210" y="1054" class="node-text">- abnormal price move alerts</text>
  <text x="2210" y="1072" class="node-text">- admin review for settlement disputes</text>

  <!-- Storage strip -->
  <rect x="475" y="1225" width="2035" height="155" class="node node-gray"/>
  <text x="505" y="1255" class="node-title">Core Data Stores</text>
  <rect x="505" y="1285" width="175" height="58" class="node node-gray"/>
  <text x="525" y="1310" class="node-title">Postgres</text>
  <text x="525" y="1330" class="node-text">users, markets, orders</text>
  <rect x="710" y="1285" width="175" height="58" class="node node-gray"/>
  <text x="730" y="1310" class="node-title">Redis</text>
  <text x="730" y="1330" class="node-text">hot books, sessions</text>
  <rect x="915" y="1285" width="175" height="58" class="node node-gray"/>
  <text x="935" y="1310" class="node-title">Event Store</text>
  <text x="935" y="1330" class="node-text">append-only ledger</text>
  <rect x="1120" y="1285" width="175" height="58" class="node node-gray"/>
  <text x="1140" y="1310" class="node-title">Time Series</text>
  <text x="1140" y="1330" class="node-text">prices, depth, volume</text>
  <rect x="1325" y="1285" width="175" height="58" class="node node-gray"/>
  <text x="1345" y="1310" class="node-title">Object Store</text>
  <text x="1345" y="1330" class="node-text">oracle evidence</text>
  <rect x="1530" y="1285" width="175" height="58" class="node node-gray"/>
  <text x="1550" y="1310" class="node-title">Warehouse</text>
  <text x="1550" y="1330" class="node-text">analytics, cohorts</text>
  <rect x="1735" y="1285" width="175" height="58" class="node node-gray"/>
  <text x="1755" y="1310" class="node-title">Search Index</text>
  <text x="1755" y="1330" class="node-text">market discovery</text>
  <rect x="1940" y="1285" width="175" height="58" class="node node-gray"/>
  <text x="1960" y="1310" class="node-title">Audit Vault</text>
  <text x="1960" y="1330" class="node-text">compliance snapshots</text>
  <rect x="2145" y="1285" width="175" height="58" class="node node-gray"/>
  <text x="2165" y="1310" class="node-title">Feature Flags</text>
  <text x="2165" y="1330" class="node-text">rollouts, experiments</text>

  <!-- End-to-end flow strip -->
  <rect x="85" y="1450" width="2425" height="120" class="node node-pink"/>
  <text x="115" y="1480" class="node-title">End-to-End V1 Flow</text>
  <text x="115" y="1510" class="node-text">User suggests market -> automated policy checks -> admin approval -> contract is listed -> traders place YES/NO orders -> matching engine creates fully collateralized fills -> users can exit before close -> market closes -> oracle evidence collected -> outcome resolved -> payouts credited -> analytics/risk models updated</text>
  <text x="115" y="1538" class="node-text">Critical V1 boundary: the platform is an exchange-style matcher and ledger, not a bookmaker that takes directional risk against users.</text>

  <!-- Main connector flow -->
  <path class="edge" d="M380 266 C425 266 430 266 475 266"/>
  <path class="edge" d="M380 376 C425 376 430 266 475 266"/>
  <path class="edge" d="M380 486 C425 486 430 266 475 266"/>
  <path class="edge" d="M620 300 L620 335"/>
  <path class="edge" d="M620 300 C700 310 699 325 699 335"/>
  <path class="edge" d="M541 407 L541 445"/>
  <path class="edge" d="M699 407 L699 445"/>
  <path class="edge" d="M541 517 L541 555"/>
  <path class="edge" d="M699 517 L699 555"/>
  <path class="edge-blue" d="M765 583 C815 583 825 266 875 266"/>
  <path class="edge-blue" d="M765 583 C810 583 825 598 875 598"/>
  <path class="edge-blue" d="M765 583 C810 583 825 716 875 716"/>

  <!-- Market lifecycle connectors -->
  <path class="edge" d="M1035 266 L1060 266"/>
  <path class="edge" d="M1140 302 C1140 320 955 320 955 340"/>
  <path class="edge" d="M1035 376 L1060 376"/>
  <path class="edge" d="M1140 412 C1140 430 955 430 955 450"/>
  <path class="edge" d="M1035 486 L1060 486"/>
  <path class="edge" d="M1048 522 L1048 560"/>
  <path class="edge" d="M1048 636 C1048 660 955 660 955 680"/>
  <path class="edge" d="M1048 636 C1048 660 1140 660 1140 680"/>

  <!-- Market to trading -->
  <path class="edge-blue" d="M1220 598 C1280 598 1280 266 1335 266"/>
  <path class="edge-blue" d="M1220 716 C1280 716 1280 376 1335 376"/>

  <!-- Trading connectors -->
  <path class="edge" d="M1490 266 L1515 266"/>
  <path class="edge" d="M1592 302 C1592 320 1412 320 1412 340"/>
  <path class="edge" d="M1490 376 L1515 376"/>
  <path class="edge" d="M1592 412 C1592 430 1412 430 1412 450"/>
  <path class="edge" d="M1490 486 L1515 486"/>
  <path class="edge" d="M1592 522 C1592 540 1412 540 1412 560"/>
  <path class="edge" d="M1490 596 L1515 596"/>
  <path class="edge" d="M1412 632 C1412 655 1503 655 1503 680"/>
  <path class="edge" d="M1592 632 C1592 655 1503 655 1503 680"/>
  <path class="edge" d="M1503 764 L1503 820"/>
  <path class="edge" d="M1412 990 L1412 1040"/>
  <path class="edge" d="M1592 990 L1592 1040"/>

  <!-- Trading to money -->
  <path class="edge-blue" d="M1670 266 C1730 266 1735 266 1795 266"/>
  <path class="edge-blue" d="M1670 376 C1730 376 1735 376 1795 376"/>
  <path class="edge-blue" d="M1670 486 C1730 486 1735 376 1795 376"/>
  <path class="edge-blue" d="M1670 596 C1730 596 1735 596 1795 596"/>

  <!-- Money connectors -->
  <path class="edge" d="M1930 266 L1955 266"/>
  <path class="edge" d="M1862 302 L1862 340"/>
  <path class="edge" d="M2022 302 L2022 340"/>
  <path class="edge" d="M1930 376 L1955 376"/>
  <path class="edge" d="M1862 412 L1862 450"/>
  <path class="edge" d="M2022 412 L2022 450"/>
  <path class="edge" d="M1930 486 L1955 486"/>
  <path class="edge" d="M2022 522 C2022 540 1862 540 1862 560"/>
  <path class="edge" d="M1930 596 L1955 596"/>
  <path class="edge" d="M1942 632 L1942 700"/>

  <!-- Risk connectors -->
  <path class="edge-red" d="M2090 266 C2140 266 2140 266 2185 266"/>
  <path class="edge-red" d="M2090 376 C2140 376 2140 376 2185 376"/>
  <path class="edge-red" d="M2090 486 C2140 486 2140 486 2185 486"/>
  <path class="edge-red" d="M1670 376 C1880 160 2160 160 2435 230"/>
  <path class="edge-red" d="M1670 1076 C1900 1076 2050 376 2360 376"/>
  <path class="edge-red" d="M1220 376 C1780 80 2200 120 2260 230"/>
  <path class="edge-red" d="M1220 598 C1820 120 2250 140 2435 230"/>
  <path class="edge" d="M2335 266 L2360 266"/>
  <path class="edge" d="M2335 376 L2360 376"/>
  <path class="edge" d="M2335 486 L2360 486"/>
  <path class="edge" d="M2335 596 L2360 596"/>

  <!-- Realtime/user feedback -->
  <path class="edge-dash" d="M1412 412 C1100 1130 620 900 541 732"/>
  <text x="780" y="1115" class="small">order book updates, fills, prices</text>
  <path class="edge-dash" d="M1862 632 C1260 1190 530 1010 245 522"/>
  <text x="690" y="1190" class="small">settlement and wallet notifications</text>

  <!-- Feedback loops to analytics/risk -->
  <path class="edge-feedback" d="M1412 1112 C1670 1180 1930 1160 2360 522"/>
  <text x="1735" y="1178" class="small">trades feed volume, price, liquidity analytics</text>
  <path class="edge-feedback" d="M1942 860 C2100 890 2190 900 2260 930"/>
  <text x="2065" y="900" class="small">resolution and payout events update risk controls</text>
  <path class="edge-feedback" d="M2348 870 C2130 1190 1430 1180 955 752"/>
  <text x="1565" y="1210" class="small">liquidity signals influence market promotion and maker incentives</text>

  <!-- Storage connectors -->
  <path class="edge-dash" d="M620 611 C620 900 620 1050 620 1225"/>
  <path class="edge-dash" d="M1048 752 C1048 1000 1048 1110 1048 1225"/>
  <path class="edge-dash" d="M1503 1112 C1503 1160 1503 1185 1503 1225"/>
  <path class="edge-dash" d="M1942 1065 C1942 1140 1942 1185 1942 1225"/>
  <path class="edge-dash" d="M2348 1100 C2348 1160 2250 1180 2250 1225"/>

  <!-- Legend -->
  <rect x="70" y="1678" width="2480" height="74" fill="#ffffff" stroke="#cfd8dc" rx="12"/>
  <rect x="100" y="1702" width="22" height="14" fill="#e0f2f1" stroke="#26a69a"/>
  <text x="132" y="1714" class="small">edge/API</text>
  <rect x="230" y="1702" width="22" height="14" fill="#e8f5e9" stroke="#66bb6a"/>
  <text x="262" y="1714" class="small">market lifecycle</text>
  <rect x="410" y="1702" width="22" height="14" fill="#fff8e1" stroke="#ffb300"/>
  <text x="442" y="1714" class="small">trading core</text>
  <rect x="560" y="1702" width="22" height="14" fill="#f3e5f5" stroke="#ab47bc"/>
  <text x="592" y="1714" class="small">money/settlement</text>
  <rect x="735" y="1702" width="22" height="14" fill="#ffebee" stroke="#ef5350"/>
  <text x="767" y="1714" class="small">risk/ops</text>
  <line x1="890" y1="1709" x2="955" y2="1709" class="edge" marker-end="url(#arrow)"/>
  <text x="970" y="1714" class="small">primary command flow</text>
  <line x1="1135" y1="1709" x2="1200" y2="1709" class="edge-feedback" marker-end="url(#arrow)"/>
  <text x="1215" y="1714" class="small">feedback/learning loop</text>
  <text x="1460" y="1714" class="small">V1 goal: fully collateralized binary exchange with clear market rules, fair matching, safe settlement, and operational controls</text>
</svg>
